<?xml version="1.0" encoding="UTF-8" standalone="no"?>
<svg
   version="1.0"
   width="650pt"
   height="650pt"
   viewBox="0 0 650 650"
   preserveAspectRatio="xMidYMid"
   id="svg9"
   xmlns="http://www.w3.org/2000/svg"
   xmlns:svg="http://www.w3.org/2000/svg">
  <defs
     id="defs9" />
  <g
     transform="matrix(0.1,0,0,-0.1,0,650)"
     fill="#000000"
     stroke="none"
     id="g9">
    <path
       d="M 1054,6395 C 921,6366 802,6273 742,6150 699,6063 690,6005 690,5824 v -154 h -99 c -89,0 -104,-3 -152,-28 -182,-95 -183,-362 0,-465 47,-26 65,-31 152,-35 l 99,-5 v -292 -292 l -99,-5 c -116,-6 -172,-28 -226,-90 -91,-107 -84,-267 17,-367 55,-56 100,-71 211,-71 h 97 v -300 -300 h -70 c -101,0 -159,-15 -215,-58 -128,-97 -140,-288 -26,-402 59,-59 120,-80 233,-80 h 78 v -295 -295 h -78 c -112,0 -174,-21 -232,-79 -112,-112 -105,-283 14,-388 56,-50 101,-63 210,-63 h 86 v -299 -298 l -102,-5 c -113,-5 -149,-18 -206,-72 -58,-54 -77,-100 -77,-191 0,-90 19,-137 77,-195 54,-54 100,-70 211,-70 h 97 v -59 c 0,-197 92,-350 257,-429 l 78,-37 2275,-3 c 1673,-2 2291,0 2335,9 174,33 317,173 354,347 16,75 16,5498 0,5574 -39,185 -189,334 -373,367 -95,18 -4481,14 -4562,-4 z M 1350,3250 V 300 h -121 c -151,0 -196,11 -255,63 -80,70 -84,86 -84,365 v 242 h 95 c 88,0 98,2 120,25 27,26 34,80 14,117 -17,31 -71,48 -154,48 h -75 v 470 470 h 86 c 119,0 153,21 154,96 0,31 -6,46 -26,65 -23,21 -36,24 -120,27 l -94,4 v 469 469 h 95 c 88,0 98,2 120,25 27,26 34,80 14,117 -17,31 -71,48 -154,48 h -75 v 470 470 h 86 c 119,0 153,21 154,96 0,31 -6,46 -25,64 -22,21 -38,25 -120,28 l -95,4 v 469 469 h 95 c 88,0 98,2 120,25 19,18 25,35 25,65 0,30 -6,47 -25,65 -22,23 -32,25 -120,25 h -95 v 173 c 0,198 8,226 79,290 67,60 89,66 244,67 h 137 z m 4308,2924 c 29,-14 66,-42 82,-62 64,-78 60,131 60,-2862 0,-3008 5,-2790 -62,-2866 -17,-19 -50,-45 -72,-57 l -41,-22 -2032,-3 -2033,-2 v 1202 c 0,662 -1,1989 -3,2950 l -2,1748 H 3581 5606 Z M 690,5410 v -80 h -78 c -70,0 -81,3 -101,24 -41,44 -23,118 33,129 11,2 49,5 84,6 l 62,1 z m 0,-1130 v -80 h -74 c -92,0 -126,21 -126,78 0,65 26,81 128,82 h 72 z m 0,-1130 v -80 h -80 c -103,0 -130,22 -121,100 1,8 13,25 27,38 21,19 36,22 100,22 h 74 z m 0,-1125 v -76 l -87,3 -88,3 -17,34 c -12,25 -14,40 -7,60 16,42 37,51 121,51 h 78 z m 0,-1136 v -81 l -81,4 c -70,3 -83,6 -100,27 -26,32 -25,85 3,111 18,17 35,20 100,20 h 78 z"
       id="path1" />
    <path
       d="m 3520,5544 c -104,-10 -276,-46 -377,-79 -639,-209 -1093,-799 -1131,-1470 -30,-517 143,-974 503,-1330 126,-125 255,-218 410,-295 246,-122 401,-159 685,-167 170,-5 212,-2 325,17 1022,171 1642,1225 1300,2210 -78,225 -217,450 -381,615 -247,251 -566,418 -915,480 -86,15 -337,26 -419,19 z m 355,-209 c 540,-77 1007,-465 1180,-980 52,-153 66,-240 72,-430 5,-154 2,-198 -16,-303 -54,-316 -185,-567 -415,-798 -175,-175 -348,-282 -576,-358 -163,-54 -269,-70 -465,-69 -250,0 -421,40 -641,149 -385,191 -679,573 -778,1014 -100,442 11,904 305,1266 182,223 467,406 748,479 173,44 403,56 586,30 z"
       id="path2" />
    <path
       d="m 3857,4990 c -142,-36 -231,-150 -231,-295 0,-94 30,-160 99,-224 124,-112 314,-108 433,11 65,64 87,118 87,213 0,67 -5,88 -27,131 -36,68 -81,112 -147,142 -59,27 -153,37 -214,22 z m 166,-220 c 21,-24 27,-40 27,-76 0,-89 -93,-143 -170,-98 -56,34 -74,97 -44,155 33,65 136,76 187,19 z"
       id="path3" />
    <path
       d="m 2985,4841 c -73,-43 -185,-150 -256,-244 -282,-372 -318,-949 -83,-1323 69,-110 105,-150 239,-266 131,-113 153,-142 204,-270 16,-41 65,-63 112,-49 77,23 87,95 29,213 -48,97 -95,152 -214,254 -123,106 -170,159 -221,250 -77,135 -108,269 -107,464 0,152 18,251 71,390 54,144 194,321 327,416 67,48 74,58 74,108 0,42 -36,76 -87,82 -30,4 -49,-2 -88,-25 z"
       id="path4" />
    <path
       d="m 4431,4413 c -65,-23 -136,-98 -155,-164 -25,-84 -21,-146 15,-218 51,-102 146,-157 258,-149 148,11 255,123 255,268 0,108 -49,192 -143,247 -55,33 -164,41 -230,16 z m 164,-198 c 56,-55 16,-145 -63,-145 -50,0 -84,33 -85,85 -2,75 95,114 148,60 z"
       id="path5" />
    <path
       d="m 3300,4284 c -156,-41 -303,-161 -374,-305 -119,-243 -70,-519 126,-704 110,-104 240,-155 398,-155 204,0 386,95 493,258 136,206 137,459 2,662 -81,121 -210,212 -346,245 -80,18 -227,18 -299,-1 z m 321,-207 c 31,-15 79,-50 107,-77 137,-135 162,-341 60,-502 -58,-93 -152,-156 -265,-178 -168,-33 -355,65 -431,228 -24,50 -27,69 -27,162 0,93 3,112 27,162 50,108 112,167 225,214 51,22 70,24 153,21 78,-3 105,-8 151,-30 z"
       id="path6" />
    <path
       d="m 4544,3605 c -25,-17 -36,-44 -59,-145 -41,-178 -89,-234 -287,-336 -166,-85 -234,-147 -297,-274 -59,-118 -52,-174 27,-207 30,-12 38,-12 70,4 30,15 41,29 60,80 38,99 90,149 240,228 160,83 232,138 283,217 57,89 127,320 114,379 -13,59 -100,90 -151,54 z"
       id="path7" />
    <path
       d="m 2293,1600 c -69,-28 -74,-148 -6,-179 33,-15 2735,-16 2764,-1 23,13 49,61 49,90 0,31 -29,76 -57,89 -30,14 -2717,14 -2750,1 z"
       id="path8" />
    <path
       d="m 2284,1131 c -73,-45 -61,-152 20,-179 30,-10 268,-12 1112,-10 l 1074,3 27,28 c 40,39 40,105 0,144 l -27,28 -1088,3 c -1058,2 -1088,2 -1118,-17 z"
       id="path9" />
  </g>
  <path
     style="fill:#ffffff;stroke:#1a1a1a;stroke-width:3.42105"
     d="m 156.60772,537.8655 c -2.4e-4,-44.94884 -0.2281,-177.60015 -0.50635,-294.78071 L 155.59546,30.029239 h 201.99003 201.99003 l 4.63589,2.340192 c 6.0313,3.044585 11.79727,8.448735 12.81346,12.009387 2.11944,7.426422 2.33996,38.985984 2.04838,293.165042 -0.22326,194.63172 -0.52271,261.23995 -1.19106,264.93187 -0.79582,4.39617 -1.31465,5.35902 -4.77668,8.86461 -2.13614,2.163 -5.46534,4.78678 -7.39821,5.83062 l -3.51432,1.89789 -202.7924,0.26089 -202.7924,0.2609 z m 294.88121,15.67767 c 4.50265,-4.64556 4.62253,-10.62049 0.31406,-15.65396 l -2.65708,-3.10419 -109.20746,0.20982 c -102.74158,0.19741 -109.35298,0.28938 -111.66535,1.55312 -3.0432,1.66315 -4.76433,4.85893 -4.76433,8.84635 0,6.07879 2.94282,9.18107 9.50292,10.01786 2.09065,0.26667 51.54327,0.53302 109.89473,0.5919 l 106.09356,0.10704 z m 52.63846,-45.24393 c 1.92114,-0.39291 2.97569,-1.26785 4.25896,-3.53354 2.77862,-4.9058 2.01197,-9.95907 -2.07186,-13.65639 -1.6237,-1.47002 -3.21511,-1.53831 -49.6831,-2.13192 -67.99334,-0.86858 -225.87264,-0.0424 -228.48154,1.19572 -4.00295,1.89962 -5.92463,9.55479 -3.55085,14.14516 2.32263,4.49149 -0.53126,4.23895 53.57274,4.74066 58.71819,0.54449 222.26749,-0.005 225.95565,-0.75969 z M 392.93016,428.41601 c 24.43219,-4.20658 44.70653,-12.06034 64.35054,-24.92773 35.4328,-23.20949 60.32085,-58.23875 70.79341,-99.63978 3.47961,-13.7559 4.923,-25.49997 4.96872,-40.42745 0.0622,-20.29807 -2.49075,-36.24354 -8.85181,-55.28846 -8.0893,-24.2192 -23.78597,-49.11833 -41.67904,-66.11407 -21.42906,-20.35441 -47.78014,-34.99677 -75.64179,-42.031437 -14.7664,-3.72831 -18.78505,-4.130843 -41.57779,-4.16472 l -21.28656,-0.03165 -10.9117,2.461282 c -18.86358,4.254935 -31.74632,8.825265 -44.96549,15.952145 -45.10704,24.31866 -76.18508,67.35212 -85.25177,118.04731 -1.99606,11.1607 -2.75452,35.69309 -1.48383,47.99404 4.17033,40.37085 21.05192,75.05861 50.71665,104.21099 13.7699,13.53206 24.40718,21.01479 42.48094,29.88293 13.3168,6.53408 23.6876,10.2665 34.68331,12.48245 11.43036,2.30353 18.71145,2.87658 37.91903,2.98435 13.84797,0.0777 18.74901,-0.18704 25.73718,-1.39021 z"
     id="path10" />
  <path
     style="fill:#ffffff;stroke:#1a1a1a;stroke-width:3.42105"
     d="m 112.7917,619.21122 c -7.41399,-0.64856 -11.42805,-2.42512 -16.515205,-7.30939 -6.218318,-5.97031 -6.156458,-5.64367 -6.425925,-33.934 l -0.237158,-24.89766 h 9.157913 c 8.942275,0 9.213645,-0.0498 11.525335,-2.1153 4.43543,-3.96306 3.80042,-12.5991 -1.11325,-15.14007 -1.33145,-0.68852 -6.08071,-1.56891 -10.91631,-2.02361 l -8.559495,-0.80487 V 486.8786 440.77087 l 8.17251,-0.42214 c 4.494885,-0.23218 9.294745,-0.83088 10.666375,-1.33043 4.90557,-1.78666 6.48526,-9.94234 2.77891,-14.34709 -2.50368,-2.97545 -5.87707,-3.87225 -14.585638,-3.87749 l -7.032157,-0.005 v -46.75439 -46.75438 h 8.313082 c 4.572193,0 9.190453,-0.33358 10.262803,-0.74129 2.67831,-1.01829 4.98743,-5.08307 4.97732,-8.76164 -0.0195,-7.09961 -3.68952,-9.46772 -15.61594,-10.07642 l -7.937265,-0.4051 v -46.6452 -46.64521 h 8.006872 c 11.951573,0 15.571903,-2.11921 15.549173,-9.10191 -0.023,-7.06419 -3.6027,-9.8951 -12.53266,-9.91112 -2.926895,-0.005 -6.604528,-0.2216 -8.172508,-0.48077 l -2.850877,-0.47122 v -46.2748 -46.2748 h 8.006872 c 5.200143,0 8.913333,-0.37874 10.592783,-1.08046 6.61573,-2.764223 6.61573,-14.080695 0,-16.844925 -1.67945,-0.701715 -5.39264,-1.080458 -10.592783,-1.080458 H 89.707605 V 66.278334 c 0,-20.132821 0.430087,-21.950024 6.626085,-27.996247 2.418517,-2.360056 5.55133,-4.870919 6.96181,-5.579696 2.96021,-1.48753 13.16992,-2.622863 23.85362,-2.652553 l 7.41228,-0.0206 V 325 619.97076 l -7.7924,-0.10925 c -4.28581,-0.0601 -10.5756,-0.35271 -13.9773,-0.65029 z"
     id="path11" />
  <path
     style="fill:#ffffff;stroke:#1a1a1a;stroke-width:3.42105"
     d="m 350.51068,409.35643 c -25.15687,-2.43132 -49.86075,-12.24821 -70.7446,-28.11267 -36.43114,-27.67499 -59.32391,-73.69531 -59.29201,-119.19206 0.0245,-34.83661 12.88298,-69.35112 36.00348,-96.63945 18.58643,-21.93692 50.77719,-41.21421 78.02537,-46.72513 15.56139,-3.14729 38.65383,-3.87534 53.14731,-1.67564 54.63285,8.29175 100.46716,46.77513 117.78541,98.89495 5.23496,15.75478 6.94338,27.89242 6.95537,49.4152 0.0184,33.09667 -11.66031,65.18684 -33.06216,90.84632 -11.14221,13.35881 -27.54049,27.37651 -41.24849,35.26034 -12.37524,7.11731 -32.46108,14.34181 -46.55989,16.74671 -8.73712,1.49033 -31.13673,2.13562 -41.00979,1.18143 z M 400.809,385.24854 c 1.67759,-0.97001 3.23474,-3.28021 5.74812,-8.52797 5.22924,-10.91829 6.95689,-12.36404 31.33762,-26.22423 8.75666,-4.97808 14.65538,-9.62937 18.25033,-14.39085 8.58603,-11.3721 16.3036,-38.32368 12.59481,-43.98401 -2.58096,-3.93904 -9.58158,-5.5795 -14.01866,-3.285 -2.59438,1.34161 -4.06634,4.64005 -6.56287,14.70634 -4.45654,17.96931 -8.50464,22.75041 -28.41529,33.56054 -17.65511,9.58552 -23.5848,15.09944 -29.74777,27.66195 -3.17627,6.47447 -3.7937,8.42255 -3.77955,11.92526 0.0188,4.64077 1.17324,6.6643 4.92461,8.63151 3.02995,1.58889 6.84368,1.55989 9.66865,-0.0736 z m -78.79201,-4.67184 c 6.04742,-2.74661 6.50969,-9.97118 1.32541,-20.71352 -4.35696,-9.02805 -8.88307,-14.61577 -19.59048,-24.18553 -17.02735,-15.21818 -23.10457,-22.96321 -28.49787,-36.31866 -4.61075,-11.41761 -6.57012,-25.11046 -5.90402,-41.25958 0.62232,-15.08757 3.64542,-27.45296 9.72123,-39.76287 6.04166,-12.2407 17.70561,-26.27673 28.94738,-34.83437 7.02693,-5.34914 8.23867,-6.93111 8.23867,-10.75586 0,-9.41707 -9.592,-12.55301 -19.33422,-6.32099 -5.65854,3.61974 -19.13285,16.6962 -24.35217,23.63316 -11.39194,15.14098 -19.13909,34.20558 -22.55193,55.49708 -1.42358,8.88119 -1.21624,31.07535 0.37099,39.7114 2.89385,15.74525 7.83989,28.34386 16.10588,41.025 4.44175,6.81426 9.891,12.56885 26.00389,27.46103 9.08875,8.40019 9.41462,8.81402 13.57466,17.23944 3.40438,6.89494 4.74348,8.86995 6.65246,9.81157 3.1359,1.5468 5.51198,1.48866 9.29012,-0.2273 z m 29.81122,-42.70712 c 25.37977,-2.80062 44.53006,-19.43025 51.1522,-44.41929 2.21499,-8.3584 2.23414,-21.22097 0.0439,-29.47705 -5.53254,-20.85483 -23.50299,-38.58664 -43.37521,-42.79921 -6.58099,-1.39506 -23.41183,-1.38493 -29.32746,0.0177 -19.74895,4.68243 -36.42749,21.22726 -42.34726,42.00776 -2.22258,7.80204 -2.41595,23.15101 -0.38591,30.63096 3.21476,11.84514 10.97501,23.93547 20.15493,31.40101 10.57986,8.60405 18.62103,11.60981 35.72223,13.35287 0.53914,0.055 4.3023,-0.26667 8.36258,-0.71471 z m 113.75982,-78.56949 c 5.43169,-2.65747 9.57158,-6.67198 12.38308,-12.00804 1.94358,-3.68879 2.11661,-4.70084 2.11661,-12.37977 0,-9.89355 -1.20483,-13.28061 -6.88372,-19.3518 -5.29921,-5.66529 -10.41872,-7.88847 -19.03302,-8.26524 -8.91872,-0.39007 -13.26446,0.95624 -18.61511,5.76693 -4.98443,4.48143 -7.27993,8.15199 -8.79393,14.06172 -2.58588,10.09368 0.21223,20.14568 7.69128,27.63029 5.57583,5.57997 10.14888,7.21309 19.43177,6.93943 6.17579,-0.18206 7.90643,-0.53601 11.70304,-2.39352 z m -63.42429,-49.19844 c 5.34726,-1.20711 10.36006,-4.34198 15.17695,-9.49125 5.88237,-6.28827 7.25133,-10.22096 7.24572,-20.81508 -0.004,-7.59309 -0.12729,-8.20968 -2.52698,-12.64067 -6.48069,-11.9665 -16.86128,-17.56441 -31.27044,-16.8631 -7.9759,0.3882 -13.41989,2.65877 -19.08909,7.96164 -7.19105,6.72638 -10.29718,16.15201 -8.96616,27.20802 0.98597,8.19 5.68526,15.55755 12.99066,20.3668 8.04226,5.29433 16.12813,6.60132 26.43934,4.27364 z"
     id="path12" />
  <path
     style="fill:#ffffff;stroke:#1a1a1a;stroke-width:3.42105"
     d="m 336.48566,317.0008 c -11.12944,-3.05581 -21.61242,-11.50364 -26.37748,-21.25659 l -2.59356,-5.30842 V 278.63894 266.8421 l 3.01595,-5.70175 c 4.12391,-7.79641 10.50391,-14.0445 18.2706,-17.89288 l 6.08187,-3.01355 h 10.68463 10.68465 l 5.66039,2.81017 c 24.66133,12.24345 30.20059,44.14577 10.99909,63.34725 -9.7449,9.74491 -24.21998,13.96091 -36.42614,10.60946 z"
     id="path13" />
  <path
     style="fill:#ffffff;stroke:#1a1a1a;stroke-width:3.42105"
     d="m 390.38011,190.80343 c -5.64326,-1.95353 -8.8148,-7.73581 -7.24508,-13.20909 3.32995,-11.61087 21.28469,-9.4256 21.3044,2.59296 0.0127,7.77594 -6.98965,13.06344 -14.05932,10.61613 z"
     id="path14" />
  <path
     style="fill:#ffffff;stroke:#1a1a1a;stroke-width:3.42105"
     d="m 451.06723,242.36587 c -5.24599,-1.02184 -7.62708,-8.88698 -3.9066,-12.90416 3.70461,-4.00006 9.49947,-3.87005 12.769,0.28649 1.8664,2.37274 2.00667,6.80941 0.29265,9.25652 -1.14238,1.63096 -5.51708,4.02874 -6.90839,3.78649 -0.32702,-0.0569 -1.33802,-0.24834 -2.24666,-0.42534 z"
     id="path15" />
</svg>
